# xmcd
#
# Track frame offsets:
#	150
#	10977
#	21491
#	34879
#	45683
#	58187
#	68654
#	79011
#	89027
#	100405
#	112155
#	123505
#	133742
#	143774
#	155974
#	168476
#	181317
#	194497
#	205036
#	214535
#	225977
#	237025
#	246036
#	256818
#	269622
#	281111
#
# Disc length: 3889 seconds
#
# Revision: 0
# Processed by: cddbd v1.5.2PL0 Copyright (c) Steve Scherf et al.
# Submitted via: audiograbber 1.83.01
#
DISCID=850f2f1a
DTITLE=George Jones - Cup Of Loneliness (The Classic Mercury Years) Limited Edi
DTITLE=tion - Disc 1
DYEAR=1994
DGENRE=Country
TTITLE0=No Money In This Deal
TTITLE1=Why Baby Why
TTITLE2=Seasons Of My Heart
TTITLE3=I'm Ragged But I'm Right
TTITLE4=Just One More
TTITLE5=Uh, Uh, No
TTITLE6=Don't Stop The Music
TTITLE7=Too Much Water
TTITLE8=Flame In My Heart
TTITLE9=Hearts In My Dreams
TTITLE10=Tall Tall Trees
TTITLE11=No Use Crying
TTITLE12=Frozen Heart
TTITLE13=Cup Of Loneliness
TTITLE14=Take The Devil Out Of Me
TTITLE15=You Never Thought
TTITLE16=Color Of The Blues
TTITLE17=A New Baby For Christmas
TTITLE18=Maybe Little Baby
TTITLE19=I'm Gonna Burn Your Playhouse Down
TTITLE20=Will The Circle Be Unbroken
TTITLE21=If I Don't Love Ypu (Grits Ain't  Groceries)
TTITLE22=Treasure Of Love
TTITLE23=White Lightning
TTITLE24=Mr. Fool
TTITLE25=Who Shot Sam
EXTD=
EXTT0=
EXTT1=
EXTT2=
EXTT3=
EXTT4=
EXTT5=
EXTT6=
EXTT7=
EXTT8=
EXTT9=
EXTT10=
EXTT11=
EXTT12=
EXTT13=
EXTT14=
EXTT15=
EXTT16=
EXTT17=
EXTT18=
EXTT19=
EXTT20=
EXTT21=
EXTT22=
EXTT23=
EXTT24=
EXTT25=
PLAYORDER=
